#!OML:ASF H:\Terrain\Patient Classification 1\Takeo\Monday\TakeoMonday.ASF
:FULLY-SPECIFIED
:DEGREES
711
root 3.24376 13.3349 1.62127 -172.731 49.0763 -185.765
lowerback 30.6227 -2.59077 4.22499
upperback 13.9094 0.311896 -0.822329
thorax -1.04526 1.38482 -3.44507
lowerneck 0.221038 -21.3459 -11.8271
upperneck -7.45343 -28.8733 26.4901
head 3.51288 -14.7137 7.53456
rclavicle 9.54166e-015 -1.47101e-014
rhumerus 71.5717 46.1791 -50.9667
rradius 38.5741
rwrist 6.0321
rhand -40.4187 60.1739
rfingers 7.12502
rthumb -13.3714 30.623
lclavicle 9.54166e-015 -1.47101e-014
lhumerus 6.02408 2.84993 87.0099
lradius 100.993
lwrist 30.1349
lhand -51.447 8.58637
lfingers 7.12502
lthumb -23.9773 37.109
rfemur -59.4831 -33.1266 11.1627
rtibia 96.8804
rfoot -37.4762 -17.1043
rtoes 4.4137
lfemur -70.453 9.98246 -27.2054
ltibia 90.0931
lfoot -24.4472 -8.13384
ltoes -0.174267
712
root 3.24252 13.3109 1.64583 -172.604 49.0873 -185.657
lowerback 30.904 -2.67873 4.28234
upperback 13.8022 0.222357 -0.766118
thorax -1.29956 1.32812 -3.39674
lowerneck 0.556972 -21.2247 -12.1125
upperneck -7.75855 -28.6883 26.6235
head 3.40331 -14.6576 7.68527
rclavicle 7.39479e-014 5.92378e-014
rhumerus 71.7101 46.3621 -50.6708
rradius 37.6988
rwrist 6.04957
rhand -40.3998 59.7756
rfingers 7.12502
rthumb -13.3532 30.2235
lclavicle 7.39479e-014 5.92378e-014
lhumerus 5.91653 3.017 87.409
lradius 99.9783
lwrist 30.6866
lhand -51.457 8.55357
lfingers 7.12502
lthumb -23.9869 37.075
rfemur -59.9177 -32.9226 11.4232
rtibia 97.2446
rfoot -37.549 -17.2017
rtoes 3.17493
lfemur -70.7953 10.0325 -27.067
ltibia 90.334
lfoot -24.1033 -8.44279
ltoes 1.4826
713
root 3.23998 13.2893 1.64628 -173.189 49.4621 -186.177
lowerback 31.0457 -2.63303 4.2794
upperback 13.8307 0.280226 -1.04743
thorax -1.31933 1.37259 -3.72803
lowerneck 0.928832 -21.2015 -12.027
upperneck -8.02249 -28.6338 26.7402
head 3.2657 -14.6768 7.77627
rclavicle 2.14687e-014 -2.42517e-014
rhumerus 71.1869 46.2306 -50.9775
rradius 37.0422
rwrist 6.08908
rhand -40.2964 59.0063
rfingers 7.12502
rthumb -13.2535 29.4477
lclavicle 2.14687e-014 -2.42517e-014
lhumerus 6.06299 2.74717 87.6049
lradius 98.8097
lwrist 31.4357
lhand -51.5988 7.38714
lfingers 7.12502
lthumb -24.1228 35.8906
rfemur -59.9347 -32.7217 10.9032
rtibia 97.5207
rfoot -37.3471 -17.3113
rtoes 1.78407
lfemur -70.6413 10.2078 -27.3813
ltibia 90.5554
lfoot -24.4966 -8.18312
ltoes 1.49169
714
root 3.23744 13.2671 1.64266 -173.659 49.8981 -186.786
lowerback 30.8544 -2.56336 4.21183
upperback 13.9497 0.335156 -1.34828
thorax -1.08924 1.42186 -4.03361
lowerneck 0.94243 -21.1903 -11.9838
upperneck -7.96127 -28.6319 26.8291
head 3.29112 -14.6774 7.79397
rclavicle 1.03368e-014 -2.78299e-014
rhumerus 70.5918 45.9758 -51.3194
rradius 36.5972
rwrist 6.13362
rhand -40.0208 58.6461
rfingers 7.12502
rthumb -12.9878 29.0704
lclavicle 1.03368e-014 -2.78299e-014
lhumerus 6.47206 2.61991 87.899
lradius 97.5832
lwrist 32.1295
lhand -51.6258 6.06557
lfingers 7.12502
lthumb -24.1487 34.5655
rfemur -60.1498 -32.4996 10.4224
rtibia 97.7268
rfoot -37.248 -17.3724
rtoes 1.06945
lfemur -70.635 10.3667 -27.7939
ltibia 90.7633
lfoot -25.0124 -7.69
ltoes -0.301591
715
root 3.2351 13.2457 1.65684 -173.425 50.2539 -186.768
lowerback 30.7402 -2.47257 4.17612
upperback 13.9538 0.418151 -1.37472
thorax -1.02601 1.45718 -4.06471
lowerneck 0.47091 -21.1877 -12.076
upperneck -7.5004 -28.6787 26.6954
head 3.49941 -14.6374 7.67907
rclavicle 7.95139e-015 -4.21423e-014
rhumerus 70.1842 45.8606 -51.4956
rradius 35.9814
rwrist 6.04793
rhand -39.8856 58.8434
rfingers 7.12502
rthumb -12.8575 29.2595
lclavicle 7.95139e-015 -4.21423e-014
lhumerus 6.80509 2.61008 88.2618
lradius 96.2754
lwrist 32.5732
lhand -51.4954 5.34335
lfingers 7.12502
lthumb -24.0238 33.8599
rfemur -60.7426 -32.051 10.6708
rtibia 97.9142
rfoot -37.4855 -17.2611
rtoes 1.88941
lfemur -71.0733 10.6483 -27.8044
ltibia 90.9934
lfoot -25.0982 -7.46226
ltoes -1.46276
716
root 3.232 13.2216 1.67466 -172.742 50.5696 -186.219
lowerback 30.5937 -2.37163 4.33445
upperback 13.9133 0.559705 -1.2182
thorax -0.994689 1.51528 -4.02171
lowerneck 0.00432461 -21.2496 -11.9085
upperneck -7.18077 -28.765 26.203
head 3.56885 -14.6275 7.45083
rclavicle -5.24792e-014 -2.22639e-014
rhumerus 69.7742 45.748 -51.7425
rradius 35.0584
rwrist 6.16205
rhand -39.8858 58.8372
rfingers 7.12502
rthumb -12.8577 29.2532
lclavicle -5.24792e-014 -2.22639e-014
lhumerus 7.20508 2.59555 88.7741
lradius 94.83
lwrist 32.3694
lhand -51.0234 5.765
lfingers 7.12502
lthumb -23.571 34.3405
rfemur -61.416 -31.4888 11.3625
rtibia 98.1179
rfoot -37.7105 -17.3216
rtoes 2.9076
lfemur -71.7027 11.0786 -27.4827
ltibia 91.2615
lfoot -25.3232 -7.50032
ltoes -0.84251
717
root 3.22765 13.1975 1.68457 -172.39 50.7966 -186.027
lowerback 30.3446 -2.33327 4.44474
upperback 13.8973 0.603628 -1.14395
thorax -0.898714 1.53071 -4.00977
lowerneck -0.0574961 -21.2706 -11.9297
upperneck -7.06176 -28.8005 25.9265
head 3.57266 -14.6323 7.36279
rclavicle -1.11319e-014 -5.96354e-015
rhumerus 69.1654 45.6015 -52.1407
rradius 34.1672
rwrist 6.41563
rhand -39.8789 58.9415
rfingers 7.12502
rthumb -12.8511 29.3571
lclavicle -1.11319e-014 -5.96354e-015
lhumerus 7.49298 2.73851 89.3096
lradius 93.4829
lwrist 31.7119
lhand -50.0571 7.32067
lfingers 7.12502
lthumb -22.6439 36.0123
rfemur -61.9351 -31.2068 11.7022
rtibia 98.3102
rfoot -37.7241 -17.4593
rtoes 2.75719
lfemur -72.1965 11.2997 -27.3801
ltibia 91.5224
lfoot -25.4983 -7.50066
ltoes -0.0539602
718
root 3.22169 13.1864 1.69104 -172.977 50.976 -186.701
lowerback 30.4188 -2.348 4.09989
upperback 13.9152 0.498434 -1.20699
thorax -0.925267 1.46661 -3.85129
lowerneck 0.0139266 -21.1835 -12.1817
upperneck -6.96089 -28.7058 25.8892
head 3.60484 -14.5808 7.39748
rclavicle 4.85035e-014 3.53837e-014
rhumerus 68.4285 45.545 -52.5656
rradius 33.5663
rwrist 6.452
rhand -39.6291 59.1915
rfingers 7.12502
rthumb -12.6103 29.5921
lclavicle 4.85035e-014 3.53837e-014
lhumerus 7.66938 2.87222 89.6622
lradius 92.2359
lwrist 31.4896
lhand -49.0624 8.94017
lfingers 7.12502
lthumb -21.6889 37.7452
rfemur -62.0283 -31.2262 11.197
rtibia 98.4675
rfoot -37.7182 -17.3793
rtoes 2.44248
lfemur -72.1545 11.2582 -27.8085
ltibia 91.6466
lfoot -25.5062 -6.97196
ltoes -2.42867
719
root 3.21285 13.1855 1.70262 -173.662 51.0652 -187.255
lowerback 30.7757 -2.39227 3.8773
upperback 13.9782 0.432008 -1.22386
thorax -1.01823 1.4368 -3.72867
lowerneck 0.157998 -21.134 -12.1276
upperneck -7.30393 -28.586 25.9114
head 3.45618 -14.5513 7.45557
rclavicle 4.29375e-014 -4.77083e-014
rhumerus 67.5968 45.3063 -52.9523
rradius 33.0576
rwrist 6.48631
rhand -39.5318 59.2737
rfingers 7.12502
rthumb -12.5164 29.6686
lclavicle 4.29375e-014 -4.77083e-014
lhumerus 7.87427 2.57914 90.0448
lradius 91.0438
lwrist 31.7245
lhand -48.3201 9.59569
lfingers 7.12502
lthumb -20.976 38.4814
rfemur -61.8566 -31.211 10.6871
rtibia 98.5977
rfoot -37.6591 -17.5507
rtoes 1.85607
lfemur -71.8537 11.2243 -28.141
ltibia 91.6258
lfoot -25.6264 -6.41806
ltoes -5.48784
720
root 3.20503 13.179 1.71301 -174.002 51.3316 -187.521
lowerback 30.963 -2.37389 3.90047
upperback 14.0388 0.484803 -1.32122
thorax -1.02311 1.47751 -3.86919
lowerneck 0.24302 -21.1649 -11.8822
upperneck -7.67355 -28.566 25.9605
head 3.30354 -14.5725 7.47883
rclavicle -4.77083e-015 7.07673e-014
rhumerus 66.6414 44.8338 -53.4904
rradius 32.493
rwrist 6.61985
rhand -39.7138 59.3059
rfingers 7.12502
rthumb -12.6918 29.7116
lclavicle -4.77083e-015 7.07673e-014
lhumerus 8.08631 2.02641 90.3097
lradius 89.9066
lwrist 32.1403
lhand -47.6088 9.81687
lfingers 7.12502
lthumb -20.2925 38.7768
rfemur -61.9291 -30.9436 10.4826
rtibia 98.7165
rfoot -37.5629 -17.6214
rtoes 1.25471
lfemur -71.7687 11.3855 -28.2966
ltibia 91.6195
lfoot -25.7813 -6.52013
ltoes -4.39475
721
root 3.19879 13.1645 1.75121 -174.117 51.6394 -187.698
lowerback 31.1382 -2.29715 3.58639
upperback 14.0523 0.508103 -1.32708
thorax -1.08546 1.47448 -3.70561
lowerneck -0.19864 -21.195 -11.8272
upperneck -7.27866 -28.6339 25.6526
head 3.43825 -14.5526 7.31093
rclavicle 5.80451e-014 -7.27552e-014
rhumerus 66.0752 44.5324 -53.6705
rradius 32.0101
rwrist 6.46839
rhand -39.4856 58.8295
rfingers 7.12502
rthumb -12.4719 29.2216
lclavicle 5.80451e-014 -7.27552e-014
lhumerus 8.39285 1.8247 90.4516
lradius 88.8655
lwrist 32.8107
lhand -47.0223 10.2655
lfingers 7.12502
lthumb -19.7287 39.2843
rfemur -62.2511 -30.441 10.5646
rtibia 98.8585
rfoot -37.7399 -17.525
rtoes 1.89714
lfemur -71.9662 11.764 -28.3151
ltibia 91.6771
lfoot -25.7149 -6.9393
ltoes -2.03529
722
root 3.19097 13.152 1.76264 -173.933 52.0209 -187.623
lowerback 31.03 -2.31444 3.72964
upperback 14.0271 0.494869 -1.3909
thorax -1.06529 1.46835 -3.85323
lowerneck -0.407485 -21.1906 -11.7645
upperneck -6.8542 -28.6667 25.2669
head 3.52419 -14.5324 7.15629
rclavicle -3.73715e-014 2.50469e-014
rhumerus 65.2562 44.2669 -53.9786
rradius 31.5293
rwrist 6.32451
rhand -39.3132 57.9656
rfingers 7.12502
rthumb -12.3056 28.3476
lclavicle -3.73715e-014 2.50469e-014
lhumerus 8.50406 1.54378 90.5239
lradius 88.1391
lwrist 33.8561
lhand -46.3153 11.8402
lfingers 7.12502
lthumb -19.049 40.9274
rfemur -62.6703 -30.0278 10.7721
rtibia 98.9118
rfoot -37.6757 -17.5861
rtoes 3.54876
lfemur -72.2655 11.9914 -28.2433
ltibia 91.8022
lfoot -25.3109 -6.90235
ltoes -1.99325
723
root 3.18304 13.1515 1.76639 -173.725 52.3704 -187.359
lowerback 31.1006 -2.38478 4.16087
upperback 13.9457 0.495388 -1.5304
thorax -1.18049 1.48152 -4.26203
lowerneck -0.0547363 -21.1118 -11.5413
upperneck -7.09209 -28.5295 25.2437
head 3.33911 -14.5081 7.21044
rclavicle 5.24792e-014 2.50469e-014
rhumerus 63.8181 43.8689 -55.0312
rradius 30.881
rwrist 6.53308
rhand -39.5601 57.5445
rfingers 7.12502
rthumb -12.5437 27.941
lclavicle 5.24792e-014 2.50469e-014
lhumerus 8.51089 1.00917 90.4127
lradius 87.2799
lwrist 34.6696
lhand -44.9331 14.5565
lfingers 7.12502
lthumb -17.7193 43.7692
rfemur -62.8408 -29.6631 11.0006
rtibia 98.8881
rfoot -37.5083 -17.6798
rtoes 5.51344
lfemur -72.3794 12.1493 -28.0227
ltibia 91.8801
lfoot -25.1062 -6.87923
ltoes -2.59297
724
root 3.17647 13.1527 1.7817 -173.43 52.7365 -186.985
lowerback 31.1337 -2.41934 4.35872
upperback 13.9338 0.4956 -1.52756
thorax -1.20534 1.48501 -4.37435
lowerneck 0.000821044 -20.9898 -11.5167
upperneck -7.23582 -28.334 25.1851
head 3.24168 -14.4223 7.24368
rclavicle -1.74931e-014 -4.69132e-014
rhumerus 62.6803 43.5419 -55.8135
rradius 30.3124
rwrist 6.55771
rhand -39.3344 57.4132
rfingers 7.12502
rthumb -12.3261 27.7965
lclavicle -1.74931e-014 -4.69132e-014
lhumerus 8.71081 0.693971 90.3739
lradius 85.9658
lwrist 34.9031
lhand -43.0412 15.6042
lfingers 7.12502
lthumb -15.8981 44.9716
rfemur -63.0276 -29.2272 11.3774
rtibia 98.855
rfoot -37.5592 -17.6673
rtoes 5.35424
lfemur -72.4765 12.3637 -27.6633
ltibia 91.894
lfoot -25.5388 -6.81772
ltoes -2.23221
